<?xml version="1.0" encoding="UTF-8" standalone="no"?>
<!-- Created with Inkscape (http://www.inkscape.org/) -->
<?xml-stylesheet type="text/css" href="svg.css" ?>
<svg
   xmlns:dc="http://purl.org/dc/elements/1.1/"
   xmlns:cc="http://creativecommons.org/ns#"
   xmlns:rdf="http://www.w3.org/1999/02/22-rdf-syntax-ns#"
   xmlns:svg="http://www.w3.org/2000/svg"
   xmlns="http://www.w3.org/2000/svg"
   xmlns:sodipodi="http://sodipodi.sourceforge.net/DTD/sodipodi-0.dtd"
   xmlns:inkscape="http://www.inkscape.org/namespaces/inkscape"
   width="87.5"
   height="62.500629"
   id="svg5055"
   version="1.1"
   inkscape:version="0.48.3.1 r9886"
   sodipodi:docname="Nuevo documento 2">
  <defs
     id="defs5057" />
  <sodipodi:namedview
     id="base"
     pagecolor="#ffffff"
     bordercolor="#666666"
     borderopacity="1.0"
     inkscape:pageopacity="0.0"
     inkscape:pageshadow="2"
     inkscape:zoom="0.35"
     inkscape:cx="-323.39285"
     inkscape:cy="-468.74969"
     inkscape:document-units="px"
     inkscape:current-layer="layer1"
     showgrid="false"
     fit-margin-top="0"
     fit-margin-left="0"
     fit-margin-right="0"
     fit-margin-bottom="0"
     inkscape:window-width="1317"
     inkscape:window-height="744"
     inkscape:window-x="49"
     inkscape:window-y="24"
     inkscape:window-maximized="1" />
  <metadata
     id="metadata5060">
    <rdf:RDF>
      <cc:Work
         rdf:about="">
        <dc:format>image/svg+xml</dc:format>
        <dc:type
           rdf:resource="http://purl.org/dc/dcmitype/StillImage" />
        <dc:title></dc:title>
      </cc:Work>
    </rdf:RDF>
  </metadata>
  <g
     inkscape:label="Capa 1"
     inkscape:groupmode="layer"
     id="layer1"
     transform="translate(0.89286143,-1.1118671)">
    <path
       inkscape:connector-curvature="0"
       id="path150"
       style="fill:#100f0d;fill-opacity:1;fill-rule:nonzero;stroke:none"
       d="m 80.354389,51.110747 -74.9983704,0 c -3.45138,0 -6.24888003,2.78987 -6.24888003,6.25287 0,3.4475 2.79750003,6.24888 6.24888003,6.24888 l 74.9983704,0 c 3.45138,0 6.25275,-2.80138 6.25275,-6.24888 0,-3.463 -2.80137,-6.25287 -6.25275,-6.25287 z m -74.9983704,-37.49725 74.9983704,0 c 3.45138,0 6.25275,-2.80138 6.25275,-6.2527499 0,-3.45913 -2.80137,-6.24888 -6.25275,-6.24888 l -74.9983704,0 c -3.45138,0 -6.24888003,2.78975 -6.24888003,6.24888 0,3.4513699 2.79750003,6.2527499 6.24888003,6.2527499 z m 74.9983704,12.49787 -74.9983704,0 c -3.45138,0 -6.24888003,2.78975 -6.24888003,6.25275 0,3.4475 2.79750003,6.24888 6.24888003,6.24888 l 74.9983704,0 c 3.45138,0 6.25275,-2.80138 6.25275,-6.24888 0,-3.463 -2.80137,-6.25275 -6.25275,-6.25275" />
  </g>
</svg>
